<?xml version="1.0" encoding="UTF-8" standalone="no"?>
<svg
   xmlns:dc="http://purl.org/dc/elements/1.1/"
   xmlns:cc="http://creativecommons.org/ns#"
   xmlns:rdf="http://www.w3.org/1999/02/22-rdf-syntax-ns#"
   xmlns:svg="http://www.w3.org/2000/svg"
   xmlns="http://www.w3.org/2000/svg"
   xmlns:sodipodi="http://sodipodi.sourceforge.net/DTD/sodipodi-0.dtd"
   xmlns:inkscape="http://www.inkscape.org/namespaces/inkscape"
   id="Layer_1"
   data-name="Layer 1"
   viewBox="0 0 717 520"
   version="1.1"
   sodipodi:docname="Multimedios_Televisión_2015.svg"
   width="717"
   height="520"
   inkscape:version="1.0.1 (3bc2e813f5, 2020-09-07)">
  <title
     id="title846">Multimedios Televisión (2015)</title>
  <metadata
     id="metadata15">
    <rdf:RDF>
      <cc:Work
         rdf:about="">
        <dc:format>image/svg+xml</dc:format>
        <dc:type
           rdf:resource="http://purl.org/dc/dcmitype/StillImage" />
        <dc:title>Multimedios Televisión (2015)</dc:title>
      </cc:Work>
    </rdf:RDF>
  </metadata>
  <sodipodi:namedview
     pagecolor="#ffffff"
     bordercolor="#666666"
     borderopacity="1"
     objecttolerance="10"
     gridtolerance="10"
     guidetolerance="10"
     inkscape:pageopacity="0"
     inkscape:pageshadow="2"
     inkscape:window-width="1920"
     inkscape:window-height="1017"
     id="namedview13"
     showgrid="false"
     showguides="true"
     inkscape:guide-bbox="true"
     inkscape:zoom="0.5"
     inkscape:cx="465.33324"
     inkscape:cy="365.30815"
     inkscape:window-x="-8"
     inkscape:window-y="-8"
     inkscape:window-maximized="1"
     inkscape:current-layer="Logo_Multimedios-Color"
     inkscape:document-rotation="0" />
  <defs
     id="defs4">
    <style
       id="style2">.cls-1{fill:#ffd100;}</style>
  </defs>
  <g
     id="MMTVUS">
    <g
       id="Logo_Multimedios-Color"
       data-name="Logo/Multimedios-Color">
      <path
         id="Combined-Shape"
         d="m 297.69144,268.12641 61.26168,-44.57062 61.4451,44.57062 101.61368,-73.36728 c 11.74423,-9.61447 15.77307,-25.80439 9.90458,-39.80175 l -18.34182,-53.74153 v 0 c -2.32284,-7.574404 -7.26387,-14.075754 -13.93978,-18.341823 8.99551,14.745833 5.25642,33.918573 -8.62065,44.203783 l -33.01528,24.21121 H 382.24723 L 358.7697,79.572499 335.47559,151.28902 H 218.27136 c -17.30688,0.044 -31.67667,13.37573 -33.01527,30.63083 -2.5302,-7.24443 -2.5302,-15.13258 0,-22.37702 v 0 l 17.42473,-53.92495 c 3.40749,-14.805715 16.19489,-25.574051 31.36451,-26.412217 H 359.6868 L 347.03094,39.77075 c -5.43558,-16.451182 -22.60829,-25.956078 -39.43491,-21.826765 5.943,-4.927989 13.3748,-7.70683 21.09309,-7.886983 h 56.67622 c 14.85943,-0.8592225 28.54417,8.065614 33.74895,22.010184 l 38.88466,119.221834 -61.26168,44.75404 23.47753,72.08335 33.38211,24.39462 c 14.06658,10.13195 33.56078,7.73513 44.75404,-5.50255 -1.87519,7.38862 -6.29054,13.88177 -12.47243,18.34182 v 0 l -45.85455,33.38211 c -11.45933,9.9775 -28.1359,11.17402 -40.90226,2.9347 l -101.7971,-73.36728 23.47753,-72.08336 -61.07826,-44.93745 -38.88466,119.40524 c -3.9087,14.72755 2.36727,30.26806 15.40713,38.15099 l 45.85455,33.19869 v 0 c 6.30197,4.43603 13.96363,6.51375 21.64335,5.86938 -15.82525,-6.6841 -23.82229,-24.43755 -18.34182,-40.71884 z"
         sodipodi:nodetypes="ccccccsccccccccsccccccccccccccscccccccccsccc"
         style="stroke-width:18.3418" />
      <polygon
         id="Fill-22"
         class="cls-1"
         points="20.34,13.95 16.99,16.37 18.27,12.44 14.93,10.02 19.06,10.02 20.34,6.09 21.61,10.02 25.74,10.02 22.4,12.44 23.68,16.37 "
         transform="matrix(18.34182,0,0,18.34182,-14.119493,-32.129189)" />
      <path
         style="fill:#000000;fill-opacity:1;stroke:none;stroke-width:6.26997;stroke-linecap:round;paint-order:stroke fill markers"
         d="M 10.207029,508.22193 C 10.093867,508.11188 10,492.38524 10,473.28241 v -34.73225 h 7.577736 7.577772 l 10.822529,14.89448 c 5.952405,8.192 10.962303,14.85504 11.133091,14.8068 0.170568,-0.055 5.14417,-6.71568 11.051933,-14.81689 l 10.741316,-14.72922 7.503677,-0.0917 7.503621,-0.0917 v 34.95126 34.95125 l -6.443972,-0.0917 -6.443989,-0.0917 -0.155896,-25.26054 -0.155895,-25.26054 -11.335187,15.08725 -11.335205,15.08724 -1.266239,0.002 -1.266239,0.002 -11.000616,-15.05313 c -6.049464,-8.27931 -11.104553,-15.05753 -11.232662,-15.06285 -0.128384,-0.005 -0.232927,11.38073 -0.232927,25.30217 v 25.31171 h -6.314504 c -3.473024,0 -6.407767,-0.0917 -6.521608,-0.20726 z"
         id="path837" />
      <path
         style="fill:#000000;fill-opacity:1;stroke:none;stroke-width:6.26997;stroke-linecap:round;paint-order:stroke fill markers"
         d="m 121.40446,509.20175 c -7.68973,-1.2931 -14.17783,-4.87892 -18.38755,-10.16302 -2.55902,-3.2122 -4.098414,-6.39414 -5.523942,-11.41815 -0.642839,-2.26595 -0.663748,-2.96587 -0.767556,-25.69982 l -0.106375,-23.3706 h 6.360413 6.36053 l 0.11923,22.12831 c 0.13205,24.44029 0.0917,23.91773 2.16846,28.13726 2.68212,5.44844 7.74457,8.53757 14.64427,8.93596 9.10971,0.52641 15.15437,-3.71771 17.76461,-12.47171 0.50235,-1.68378 0.56233,-3.88461 0.66338,-24.29099 l 0.11004,-22.43883 h 6.52976 6.52964 l -0.13572,22.594 c -0.11188,18.78441 -0.21697,22.99955 -0.61772,24.9977 -2.63355,13.13036 -10.66493,20.96379 -23.65342,23.07053 -3.38595,0.54842 -8.75659,0.54475 -12.05842,-0.0106 z"
         id="path839" />
      <path
         style="fill:#000000;fill-opacity:1;stroke:none;stroke-width:6.26997;stroke-linecap:round;paint-order:stroke fill markers"
         d="m 170.24553,473.33414 v -34.78398 h 6.5217 6.52165 v 28.72531 28.72549 l 17.93446,0.0734 17.93445,0.0734 0.0862,5.97852 0.088,5.97852 H 194.7907 170.25025 Z"
         id="path841" />
      <path
         style="fill:#000000;fill-opacity:1;stroke:none;stroke-width:6.26997;stroke-linecap:round;paint-order:stroke fill markers"
         d="m 241.51768,479.23507 v -28.88323 h -11.02476 -11.02461 v -5.90093 -5.90075 h 28.73316 28.73293 l -0.088,5.82316 -0.0862,5.82316 -11.10222,0.0734 -11.10233,0.0734 v 28.87938 28.87919 h -6.52119 -6.52156 z"
         id="path843" />
      <path
         style="fill:#000000;fill-opacity:1;stroke:none;stroke-width:6.26997;stroke-linecap:round;paint-order:stroke fill markers"
         d="m 289.34284,473.33414 v -34.78398 h 6.5216 6.52172 v 34.78398 34.78416 h -6.52172 -6.5216 z"
         id="path845" />
      <path
         style="fill:#000000;fill-opacity:1;stroke:none;stroke-width:6.26997;stroke-linecap:round;paint-order:stroke fill markers"
         d="m 314.80836,473.48949 v -34.93933 h 7.53885 7.5389 l 10.8614,14.90438 c 5.97376,8.19733 10.98866,14.86329 11.14432,14.81304 0.16139,-0.055 5.11845,-6.7221 11.02838,-14.82661 l 10.74533,-14.73564 7.52719,-0.0917 7.52724,-0.0917 v 34.94502 34.94502 h -6.51973 -6.51989 l -0.0807,-25.35958 -0.0807,-25.3594 -11.33526,15.10394 -11.33515,15.10412 -1.2932,0.006 -1.2932,0.007 -10.91305,-14.89979 c -6.00205,-8.19495 -11.0448,-14.9816 -11.20606,-15.0812 -0.1856,-0.11005 -0.29382,9.34333 -0.29382,25.14884 v 25.33005 h -6.51936 -6.52165 z"
         id="path847" />
      <path
         style="fill:#000000;fill-opacity:1;stroke:none;stroke-width:6.26997;stroke-linecap:round;paint-order:stroke fill markers"
         d="m 401.29743,473.33414 v -34.78398 h 26.08648 26.08643 v 6.21146 6.21146 h -19.56487 -19.56486 v 8.23015 8.23016 h 18.95061 18.95045 l -0.0862,5.97852 -0.088,5.97851 -18.86614,0.0734 -18.86608,0.0734 v 7.91706 7.91725 h 19.56486 19.56486 v 6.36681 6.36663 H 427.3803 401.29382 Z"
         id="path849" />
      <path
         style="fill:#000000;fill-opacity:1;stroke:none;stroke-width:6.26997;stroke-linecap:round;paint-order:stroke fill markers"
         d="m 465.89252,473.31304 v -34.80543 l 17.00285,0.12839 c 18.15805,0.12839 18.21221,0.14673 23.3652,1.81584 10.20572,3.32152 17.78505,11.5282 20.63513,22.34364 4.839,18.36273 -3.22726,36.83459 -18.6572,42.72525 -6.33714,2.41929 -8.16225,2.59775 -26.58535,2.59904 l -15.76063,10e-4 z m 31.30918,22.06063 c 8.67882,-1.08767 15.07565,-6.68981 17.36648,-15.20684 0.7725,-2.87178 0.75856,-10.83249 -0.0238,-13.6652 -2.00094,-7.24686 -6.79652,-12.39651 -13.68196,-14.6918 -1.71193,-0.57043 -2.86867,-0.6438 -11.91175,-0.75752 l -10.0153,-0.12839 v 22.38399 22.38399 h 7.84964 c 4.31716,0 9.00462,-0.14674 10.41626,-0.32098 z"
         id="path851" />
      <path
         style="fill:#000000;fill-opacity:1;stroke:none;stroke-width:6.26997;stroke-linecap:round;paint-order:stroke fill markers"
         d="m 540.73591,473.33414 v -34.78398 h 6.52172 6.52158 v 34.78398 34.78416 h -6.52158 -6.52172 z"
         id="path853" />
      <path
         style="fill:#000000;fill-opacity:1;stroke:none;stroke-width:6.26997;stroke-linecap:round;paint-order:stroke fill markers"
         d="m 594.92752,509.21881 c -6.3943,-1.16654 -11.67462,-3.449 -16.00502,-6.92037 -10.56013,-8.46493 -15.00229,-23.92764 -11.19974,-38.98517 2.8888,-11.43888 10.91478,-20.49589 21.3043,-24.04063 6.79804,-2.3195 15.46837,-2.77548 22.36401,-1.17571 13.82509,3.20652 23.5176,13.81139 26.06971,28.52355 0.60414,3.48531 0.61239,9.76005 0.0177,13.39155 -2.62396,16.01516 -12.68156,26.49714 -27.99436,29.17578 -3.34924,0.5851 -11.42099,0.60345 -14.55685,0.0367 z m 14.43564,-12.28113 c 5.78098,-1.65077 10.19986,-5.28758 12.82899,-10.55939 2.20971,-4.43083 2.82429,-7.23603 2.82391,-12.8888 0,-3.85398 -0.12473,-5.10948 -0.70062,-7.26978 -2.7215,-10.14981 -9.19645,-15.89887 -19.28853,-17.12594 -5.44887,-0.66214 -11.5065,0.67315 -15.66667,3.4567 -5.20954,3.4844 -8.70761,9.2617 -9.81858,16.21545 -0.58305,3.64654 -0.23587,9.32664 0.78204,12.78315 2.65951,9.03977 8.48309,14.37155 17.5018,16.0236 2.51277,0.46038 8.94101,0.11005 11.53785,-0.63463 z"
         id="path855" />
      <path
         style="fill:#000000;fill-opacity:1;stroke:none;stroke-width:6.26997;stroke-linecap:round;paint-order:stroke fill markers"
         d="m 671.16844,509.64562 c -3.88783,-0.42369 -8.30437,-1.70762 -11.80103,-3.43194 -2.85399,-1.40681 -3.60955,-1.96165 -6.0558,-4.44128 -1.79499,-1.81951 -3.2635,-3.66323 -4.10502,-5.15387 -2.12513,-3.76448 -2.31984,-3.42625 3.78208,-6.56894 2.89691,-1.49119 5.28622,-2.68378 5.30946,-2.64838 0.0238,0.0367 0.44861,0.82172 0.94363,1.74798 1.89798,3.54309 5.94477,6.58508 10.69317,8.03812 5.90739,1.8085 13.62731,1.44166 18.48672,-0.87858 5.67856,-2.71018 7.51411,-9.28059 3.77854,-13.52452 -2.69932,-3.06694 -6.10881,-4.21257 -16.99496,-5.71109 -17.16712,-2.3628 -24.6007,-8.55353 -24.62668,-20.50909 -0.022,-10.26518 6.74551,-17.07587 19.65786,-19.7822 3.93508,-0.82539 12.10279,-0.73735 16.40029,0.18341 5.81162,1.23441 9.89417,3.19863 13.40097,6.4455 1.77189,1.63976 4.67012,5.54639 4.67012,6.29326 0,0.19076 -2.27931,1.48569 -5.06509,2.87472 l -5.06515,2.52732 -1.59106,-1.68378 c -3.35447,-3.54694 -8.14173,-5.51135 -14.08214,-5.77804 -6.33466,-0.2843 -10.2162,0.7942 -13.03202,3.61921 -1.97629,1.9833 -2.64075,3.7089 -2.39867,6.22869 0.29015,3.01577 2.57078,5.13021 7.07349,6.55666 1.10998,0.35216 4.88339,1.05465 8.38491,1.56272 10.63554,1.54255 15.7777,3.06088 20.04876,5.91762 5.59518,3.74246 8.0172,8.65165 8.01918,16.25324 0,4.30317 -0.66118,7.0328 -2.51432,10.37395 -4.81149,8.67164 -17.86974,13.17713 -33.31742,11.49573 z"
         id="path857" />
    </g>
  </g>
</svg>
